
<svg width="271px" height="157px" viewBox="0 0 271 157" version="1.1" xmlns="http://www.w3.org/2000/svg" xmlns:xlink="http://www.w3.org/1999/xlink">
    <!-- Generator: Sketch 51.2 (57519) - http://www.bohemiancoding.com/sketch -->
    <title>Jeremy Chen</title>
    <desc>Created with Sketch.</desc>
    <defs>
      <style>
      .Page-1 {
      fill: transparent; stroke:rgba(130,130,132,1);;stroke-width:2;stroke-miterlimit:2;
      stroke-dasharray: 300;
      stroke-dashoffset: 0;
      -webkit-animation : dash 1.5s linear forwards;
      animation : dash 1.5s linear forwards;
      }
      @-webkit-keyframes dash {
        from {
          stroke-dashoffset:300;
        }
        to {
          stroke-dashoffset: 0;
          fill: rgba(130,130,132,1);

        }
      }
    </style>
    </defs>
    <g>
        <path class="Page-1" d="M6.96,54.04 C4.29332,52.1999908 2.2400072,49.7333488 0.8,46.64 C0.533332,46.2133312 0.4,45.7866688 0.4,45.36 C0.4,44.7199968 0.6533308,44.1866688 1.16,43.76 C1.6666692,43.3333312 2.2133304,43.12 2.8,43.12 C3.6533376,43.12 4.3999968,43.5733288 5.04,44.48 C6.0533384,46.7733448 7.5199904,48.5999932 9.44,49.96 C11.3600096,51.3200068 13.519988,52 15.92,52 C19.6000184,52 22.5866552,50.866678 24.88,48.6 C27.1733448,46.333322 28.32,43.3600184 28.32,39.68 L28.32,2.4 C28.32,1.7066632 28.5599976,1.1333356 29.04,0.68 C29.5200024,0.2266644 30.1333296,0 30.88,0 C31.6266704,0 32.2266644,0.2266644 32.68,0.68 C33.1333356,1.1333356 33.36,1.7066632 33.36,2.4 L33.36,39.68 C33.36,42.9333496 32.6133408,45.8666536 31.12,48.48 C29.6266592,51.0933464 27.5600132,53.133326 24.92,54.6 C22.2799868,56.066674 19.2800168,56.8 15.92,56.8 C12.6133168,56.8 9.62668,55.8800092 6.96,54.04 Z M81.04,34.84 C80.5599976,35.2933356 80.0000032,35.52 79.36,35.52 L49.12,35.52 C49.12,38.720016 49.7733268,41.586654 51.08,44.12 C52.3866732,46.653346 54.2533212,48.653326 56.68,50.12 C59.1066788,51.586674 61.9733168,52.32 65.28,52.32 C67.8400128,52.32 70.1333232,51.786672 72.16,50.72 C74.1866768,49.653328 75.8133272,48.2933416 77.04,46.64 C77.6266696,46.1599976 78.186664,45.92 78.72,45.92 C79.253336,45.92 79.7333312,46.1333312 80.16,46.56 C80.5866688,46.9866688 80.8,47.466664 80.8,48 C80.8,48.5866696 80.533336,49.146664 80,49.68 C78.2933248,51.7600104 76.1466796,53.46666 73.56,54.8 C70.9733204,56.13334 68.2400144,56.8 65.36,56.8 C61.2533128,56.8 57.6266824,55.9200088 54.48,54.16 C51.3333176,52.3999912 48.8800088,49.9333492 47.12,46.76 C45.3599912,43.5866508 44.48,39.9200208 44.48,35.76 C44.48,31.3866448 45.346658,27.5600164 47.08,24.28 C48.813342,20.9999836 51.1199856,18.493342 54,16.76 C56.8800144,15.026658 59.9466504,14.16 63.2,14.16 C66.400016,14.16 69.399986,14.9066592 72.2,16.4 C75.000014,17.8933408 77.2799912,20.0799856 79.04,22.96 C80.8000088,25.8400144 81.7066664,29.2533136 81.76,33.2 C81.76,33.8400032 81.5200024,34.3866644 81.04,34.84 Z M54.6,22 C51.9599868,24.133344 50.2666704,27.19998 49.52,31.2 L76.8,31.2 L76.8,30.56 C76.533332,28.159988 75.73334,26.0666756 74.4,24.28 C73.06666,22.4933244 71.40001,21.133338 69.4,20.2 C67.39999,19.266662 65.333344,18.8 63.2,18.8 C60.1066512,18.8 57.2400132,19.866656 54.6,22 Z M113.68,14.8 C114.533338,15.2266688 114.96,15.8666624 114.96,16.72 C114.96,17.4666704 114.746669,18.0666644 114.32,18.52 C113.893331,18.9733356 113.38667,19.2 112.8,19.2 C112.533332,19.2 112.013337,19.066668 111.24,18.8 C110.466663,18.533332 109.733337,18.4 109.04,18.4 C107.066657,18.4 105.106676,19.1599924 103.16,20.68 C101.213324,22.2000076 99.6133396,24.159988 98.36,26.56 C97.1066604,28.960012 96.48,31.3866544 96.48,33.84 L96.48,53.6 C96.48,54.2933368 96.2533356,54.8666644 95.8,55.32 C95.3466644,55.7733356 94.7733368,56 94.08,56 C93.3866632,56 92.8133356,55.7733356 92.36,55.32 C91.9066644,54.8666644 91.68,54.2933368 91.68,53.6 L91.68,17.76 C91.68,17.0666632 91.9066644,16.4933356 92.36,16.04 C92.8133356,15.5866644 93.3866632,15.36 94.08,15.36 C94.7733368,15.36 95.3466644,15.5866644 95.8,16.04 C96.2533356,16.4933356 96.48,17.0666632 96.48,17.76 L96.48,24.8 C97.7066728,21.7599848 99.5599876,19.24001 102.04,17.24 C104.520012,15.23999 107.439983,14.2133336 110.8,14.16 C111.866672,14.16 112.826662,14.3733312 113.68,14.8 Z M154.56,34.84 C154.079998,35.2933356 153.520003,35.52 152.88,35.52 L122.64,35.52 C122.64,38.720016 123.293327,41.586654 124.6,44.12 C125.906673,46.653346 127.773321,48.653326 130.2,50.12 C132.626679,51.586674 135.493317,52.32 138.8,52.32 C141.360013,52.32 143.653323,51.786672 145.68,50.72 C147.706677,49.653328 149.333327,48.2933416 150.56,46.64 C151.14667,46.1599976 151.706664,45.92 152.24,45.92 C152.773336,45.92 153.253331,46.1333312 153.68,46.56 C154.106669,46.9866688 154.32,47.466664 154.32,48 C154.32,48.5866696 154.053336,49.146664 153.52,49.68 C151.813325,51.7600104 149.66668,53.46666 147.08,54.8 C144.49332,56.13334 141.760014,56.8 138.88,56.8 C134.773313,56.8 131.146682,55.9200088 128,54.16 C124.853318,52.3999912 122.400009,49.9333492 120.64,46.76 C118.879991,43.5866508 118,39.9200208 118,35.76 C118,31.3866448 118.866658,27.5600164 120.6,24.28 C122.333342,20.9999836 124.639986,18.493342 127.52,16.76 C130.400014,15.026658 133.46665,14.16 136.72,14.16 C139.920016,14.16 142.919986,14.9066592 145.72,16.4 C148.520014,17.8933408 150.799991,20.0799856 152.56,22.96 C154.320009,25.8400144 155.226666,29.2533136 155.28,33.2 C155.28,33.8400032 155.040002,34.3866644 154.56,34.84 Z M128.12,22 C125.479987,24.133344 123.78667,27.19998 123.04,31.2 L150.32,31.2 L150.32,30.56 C150.053332,28.159988 149.25334,26.0666756 147.92,24.28 C146.58666,22.4933244 144.92001,21.133338 142.92,20.2 C140.91999,19.266662 138.853344,18.8 136.72,18.8 C133.626651,18.8 130.760013,19.866656 128.12,22 Z M222.2,19.24 C224.466678,22.2000148 225.6,26.1066424 225.6,30.96 L225.6,53.6 C225.6,54.2933368 225.373336,54.8666644 224.92,55.32 C224.466664,55.7733356 223.893337,56 223.2,56 C222.506663,56 221.933336,55.7733356 221.48,55.32 C221.026664,54.8666644 220.8,54.2933368 220.8,53.6 L220.8,31.2 C220.8,27.6799824 219.960008,24.8133444 218.28,22.6 C216.599992,20.3866556 214.000018,19.28 210.48,19.28 C208.239989,19.28 206.12001,19.813328 204.12,20.88 C202.11999,21.946672 200.506673,23.3999908 199.28,25.24 C198.053327,27.0800092 197.44,29.066656 197.44,31.2 L197.44,53.6 C197.44,54.2933368 197.213336,54.8666644 196.76,55.32 C196.306664,55.7733356 195.733337,56 195.04,56 C194.346663,56 193.773336,55.7733356 193.32,55.32 C192.866664,54.8666644 192.64,54.2933368 192.64,53.6 L192.64,30.96 C192.64,27.493316 191.840008,24.6800108 190.24,22.52 C188.639992,20.3599892 186.13335,19.28 182.72,19.28 C180.533322,19.28 178.466676,19.813328 176.52,20.88 C174.573324,21.946672 173.000006,23.3733244 171.8,25.16 C170.599994,26.9466756 170,28.8799896 170,30.96 L170,53.6 C170,54.2933368 169.773336,54.8666644 169.32,55.32 C168.866664,55.7733356 168.293337,56 167.6,56 C166.906663,56 166.333336,55.7733356 165.88,55.32 C165.426664,54.8666644 165.2,54.2933368 165.2,53.6 L165.2,17.76 C165.2,17.0666632 165.426664,16.4933356 165.88,16.04 C166.333336,15.5866644 166.906663,15.36 167.6,15.36 C168.293337,15.36 168.866664,15.5866644 169.32,16.04 C169.773336,16.4933356 170,17.0666632 170,17.76 L170,22.4 C171.440007,20.2133224 173.386654,18.4000072 175.84,16.96 C178.293346,15.5199928 180.879986,14.8 183.6,14.8 C186.693349,14.8 189.359989,15.5466592 191.6,17.04 C193.840011,18.5333408 195.439995,20.7199856 196.4,23.6 C197.520006,21.2533216 199.573318,19.2000088 202.56,17.44 C205.546682,15.6799912 208.559985,14.8 211.6,14.8 C216.400024,14.8 219.933322,16.2799852 222.2,19.24 Z M269.96,15.08 C270.413336,15.5333356 270.64,16.1066632 270.64,16.8 L270.64,52.08 C270.64,56.2933544 269.813342,59.8933184 268.16,62.88 C266.506658,65.8666816 264.213348,68.1333256 261.28,69.68 C258.346652,71.2266744 255.040018,72 251.36,72 C249.119989,72 247.026676,71.7600024 245.08,71.28 C243.133324,70.7999976 241.520006,70.160004 240.24,69.36 C239.119994,68.6666632 238.56,67.8933376 238.56,67.04 C238.56,66.9333328 238.613333,66.6666688 238.72,66.24 C238.880001,65.706664 239.146665,65.306668 239.52,65.04 C239.893335,64.773332 240.293331,64.64 240.72,64.64 C241.040002,64.64 241.359998,64.7199992 241.68,64.88 C245.09335,66.746676 248.346651,67.68 251.44,67.68 C255.866689,67.68 259.37332,66.2933472 261.96,63.52 C264.54668,60.7466528 265.84,56.960024 265.84,52.16 L265.84,49.36 C264.50666,51.6000112 262.586679,53.3999932 260.08,54.76 C257.573321,56.1200068 254.853348,56.8 251.92,56.8 C247.279977,56.8 243.760012,55.4133472 241.36,52.64 C238.959988,49.8666528 237.76,46.1066904 237.76,41.36 L237.76,16.8 C237.76,16.1066632 237.986664,15.5333356 238.44,15.08 C238.893336,14.6266644 239.466663,14.4 240.16,14.4 C240.853337,14.4 241.426664,14.6266644 241.88,15.08 C242.333336,15.5333356 242.56,16.1066632 242.56,16.8 L242.56,40.64 C242.56,44.4800192 243.399992,47.3866568 245.08,49.36 C246.760008,51.3333432 249.386649,52.32 252.96,52.32 C255.146678,52.32 257.23999,51.7733388 259.24,50.68 C261.24001,49.5866612 262.839994,48.1466756 264.04,46.36 C265.240006,44.5733244 265.84,42.6666768 265.84,40.64 L265.84,16.8 C265.84,16.1066632 266.066664,15.5333356 266.52,15.08 C266.973336,14.6266644 267.546663,14.4 268.24,14.4 C268.933337,14.4 269.506664,14.6266644 269.96,15.08 Z M91.4,106.16 C91.4,106.640002 91.2133352,107.17333 90.84,107.76 C90.3599976,108.34667 89.7466704,108.64 89,108.64 C88.5733312,108.64 88.1466688,108.506668 87.72,108.24 C83.453312,105.413319 78.786692,104 73.72,104 C69.3999784,104 65.4933508,105.013323 62,107.04 C58.5066492,109.066677 55.76001,111.906648 53.76,115.56 C51.75999,119.213352 50.76,123.359977 50.76,128 C50.76,132.74669 51.7733232,136.946648 53.8,140.6 C55.8266768,144.253352 58.5866492,147.07999 62.08,149.08 C65.5733508,151.08001 69.453312,152.08 73.72,152.08 C78.786692,152.08 83.4266456,150.693347 87.64,147.92 C88.0666688,147.653332 88.5199976,147.52 89,147.52 C89.7466704,147.52 90.3599976,147.839997 90.84,148.48 C91.2133352,148.906669 91.4,149.41333 91.4,150 C91.4,150.853338 91.0266704,151.493331 90.28,151.92 C88.1999896,153.306674 85.6400152,154.466662 82.6,155.4 C79.5599848,156.333338 76.6000144,156.8 73.72,156.8 C68.653308,156.8 63.9733548,155.586679 59.68,153.16 C55.3866452,150.733321 51.973346,147.333355 49.44,142.96 C46.906654,138.586645 45.64,133.600028 45.64,128 C45.64,122.613306 46.8933208,117.720022 49.4,113.32 C51.9066792,108.919978 55.293312,105.480012 59.56,103 C63.826688,100.519988 68.5466408,99.28 73.72,99.28 C76.7066816,99.28 79.6266524,99.7066624 82.48,100.56 C85.3333476,101.413338 87.9066552,102.613326 90.2,104.16 C91.000004,104.640002 91.4,105.306662 91.4,106.16 Z M129.72,119.32 C132.066678,122.333348 133.24,126.21331 133.24,130.96 L133.24,153.6 C133.24,154.293337 133.013336,154.866664 132.56,155.32 C132.106664,155.773336 131.533337,156 130.84,156 C130.146663,156 129.573336,155.773336 129.12,155.32 C128.666664,154.866664 128.44,154.293337 128.44,153.6 L128.44,130.96 C128.44,127.493316 127.613342,124.680011 125.96,122.52 C124.306658,120.359989 121.720018,119.28 118.2,119.28 C115.959989,119.28 113.84001,119.813328 111.84,120.88 C109.83999,121.946672 108.226673,123.373324 107,125.16 C105.773327,126.946676 105.16,128.87999 105.16,130.96 L105.16,153.6 C105.16,154.293337 104.933336,154.866664 104.48,155.32 C104.026664,155.773336 103.453337,156 102.76,156 C102.066663,156 101.493336,155.773336 101.04,155.32 C100.586664,154.866664 100.36,154.293337 100.36,153.6 L100.36,99.2 C100.36,98.5066632 100.586664,97.9333356 101.04,97.48 C101.493336,97.0266644 102.066663,96.8 102.76,96.8 C103.453337,96.8 104.026664,97.0266644 104.48,97.48 C104.933336,97.9333356 105.16,98.5066632 105.16,99.2 L105.16,122.64 C106.600007,120.346655 108.599987,118.466674 111.16,117 C113.720013,115.533326 116.33332,114.8 119,114.8 C123.800024,114.8 127.373322,116.306652 129.72,119.32 Z M179.64,134.84 C179.159998,135.293336 178.600003,135.52 177.96,135.52 L147.72,135.52 C147.72,138.720016 148.373327,141.586654 149.68,144.12 C150.986673,146.653346 152.853321,148.653326 155.28,150.12 C157.706679,151.586674 160.573317,152.32 163.88,152.32 C166.440013,152.32 168.733323,151.786672 170.76,150.72 C172.786677,149.653328 174.413327,148.293342 175.64,146.64 C176.22667,146.159998 176.786664,145.92 177.32,145.92 C177.853336,145.92 178.333331,146.133331 178.76,146.56 C179.186669,146.986669 179.4,147.466664 179.4,148 C179.4,148.58667 179.133336,149.146664 178.6,149.68 C176.893325,151.76001 174.74668,153.46666 172.16,154.8 C169.57332,156.13334 166.840014,156.8 163.96,156.8 C159.853313,156.8 156.226682,155.920009 153.08,154.16 C149.933318,152.399991 147.480009,149.933349 145.72,146.76 C143.959991,143.586651 143.08,139.920021 143.08,135.76 C143.08,131.386645 143.946658,127.560016 145.68,124.28 C147.413342,120.999984 149.719986,118.493342 152.6,116.76 C155.480014,115.026658 158.54665,114.16 161.8,114.16 C165.000016,114.16 167.999986,114.906659 170.8,116.4 C173.600014,117.893341 175.879991,120.079986 177.64,122.96 C179.400009,125.840014 180.306666,129.253314 180.36,133.2 C180.36,133.840003 180.120002,134.386664 179.64,134.84 Z M153.2,122 C150.559987,124.133344 148.86667,127.19998 148.12,131.2 L175.4,131.2 L175.4,130.56 C175.133332,128.159988 174.33334,126.066676 173,124.28 C171.66666,122.493324 170.00001,121.133338 168,120.2 C165.99999,119.266662 163.933344,118.8 161.8,118.8 C158.706651,118.8 155.840013,119.866656 153.2,122 Z M220.48,118.52 C222.800012,121.426681 223.96,125.279976 223.96,130.08 L223.96,153.6 C223.96,154.293337 223.720002,154.866664 223.24,155.32 C222.759998,155.773336 222.200003,156 221.56,156 C220.866663,156 220.293336,155.773336 219.84,155.32 C219.386664,154.866664 219.16,154.293337 219.16,153.6 L219.16,130.32 C219.16,126.853316 218.293342,124.040011 216.56,121.88 C214.826658,119.719989 212.146685,118.64 208.52,118.64 C206.226655,118.64 204.053344,119.173328 202,120.24 C199.946656,121.306672 198.280006,122.733324 197,124.52 C195.719994,126.306676 195.08,128.23999 195.08,130.32 L195.08,153.6 C195.08,154.293337 194.853336,154.866664 194.4,155.32 C193.946664,155.773336 193.373337,156 192.68,156 C191.986663,156 191.413336,155.773336 190.96,155.32 C190.506664,154.866664 190.28,154.293337 190.28,153.6 L190.28,117.76 C190.28,117.066663 190.506664,116.493336 190.96,116.04 C191.413336,115.586664 191.986663,115.36 192.68,115.36 C193.373337,115.36 193.946664,115.586664 194.4,116.04 C194.853336,116.493336 195.08,117.066663 195.08,117.76 L195.08,122.16 C196.520007,119.866655 198.586653,117.960008 201.28,116.44 C203.973347,114.919992 206.733319,114.16 209.56,114.16 C214.520025,114.16 218.159988,115.613319 220.48,118.52 Z" id="Jeremy-Chen" fill="#828284"></path>
    </g>
</svg>
