<?xml version="1.0" encoding="UTF-8"?>
<svg width="267px" height="157px" viewBox="0 0 267 157" version="1.1" xmlns="http://www.w3.org/2000/svg" xmlns:xlink="http://www.w3.org/1999/xlink">
    <!-- Generator: Sketch 51.2 (57519) - http://www.bohemiancoding.com/sketch -->
    <title>Jeremy Chen</title>
    <desc>Created with Sketch.</desc>
    <defs>
      	<style>
		      .Page-1 {
		      fill: transparent; stroke:rgba(130,130,132,1);;stroke-width:2;stroke-miterlimit:2;
		      stroke-dasharray: 300;
		      stroke-dashoffset: 0;
		      -webkit-animation : dash 1.5s linear forwards;
		      animation : dash 1.5s linear forwards;
		      }
		      @-webkit-keyframes dash {
		        from {
		          stroke-dashoffset:300;
		        }
		        to {
		          stroke-dashoffset: 0;
		          fill: rgba(130,130,132,1);

		        }
		      }
    	</style>
    </defs>
    <g>
        <path class="Page-1" 
        	d="M6.76,53.76 C4.0666532,51.7333232 2.05334,49.0400168 0.72,45.68 C0.6133328,45.3599984 0.56,45.0933344 0.56,44.88 C0.56,44.4533312 0.7199984,44.106668 1.04,43.84 C1.3600016,43.573332 1.7333312,43.44 2.16,43.44 C2.8533368,43.44 3.3599984,43.7866632 3.68,44.48 C4.6933384,47.2000136 6.2933224,49.3999916 8.48,51.08 C10.6666776,52.7600084 13.1466528,53.6 15.92,53.6 C20.0266872,53.6 23.3066544,52.3733456 25.76,49.92 C28.2133456,47.4666544 29.44,44.1866872 29.44,40.08 L29.44,1.6 C29.44,1.1733312 29.5999984,0.8000016 29.92,0.48 C30.2400016,0.1599984 30.666664,0 31.2,0 C31.6800024,0 32.0666652,0.1599984 32.36,0.48 C32.6533348,0.8000016 32.8,1.1733312 32.8,1.6 L32.8,40.08 C32.8,43.3866832 32.0933404,46.306654 30.68,48.84 C29.2666596,51.373346 27.2800128,53.3333264 24.72,54.72 C22.1599872,56.1066736 19.2266832,56.8 15.92,56.8 C12.5066496,56.8 9.4533468,55.7866768 6.76,53.76 Z M80,46.84 C80.266668,47.1333348 80.4,47.4666648 80.4,47.84 C80.4,48.2133352 80.2933344,48.533332 80.08,48.8 C78.3199912,51.1466784 76.1333464,53.0666592 73.52,54.56 C70.9066536,56.0533408 68.1066816,56.8 65.12,56.8 C61.11998,56.8 57.5733488,55.9466752 54.48,54.24 C51.3866512,52.5333248 48.973342,50.1066824 47.24,46.96 C45.506658,43.8133176 44.64,40.1600208 44.64,36 C44.64,31.733312 45.4799916,27.9866828 47.16,24.76 C48.8400084,21.5333172 51.0666528,19.0666752 53.84,17.36 C56.6133472,15.6533248 59.5733176,14.8 62.72,14.8 C65.8666824,14.8 68.7866532,15.4799932 71.48,16.84 C74.1733468,18.2000068 76.3733248,20.2399864 78.08,22.96 C79.7866752,25.6800136 80.6933328,29.03998 80.8,33.04 C80.8,33.4666688 80.6400016,33.8533316 80.32,34.2 C79.9999984,34.5466684 79.6266688,34.72 79.2,34.72 L47.76,34.72 L47.76,35.76 C47.76,39.0666832 48.42666,42.0933196 49.76,44.84 C51.09334,47.5866804 53.0666536,49.759992 55.68,51.36 C58.2933464,52.960008 61.4399816,53.76 65.12,53.76 C67.6800128,53.76 70.093322,53.1333396 72.36,51.88 C74.626678,50.6266604 76.3999936,49.0400096 77.68,47.12 C78.0533352,46.6399976 78.506664,46.4 79.04,46.4 C79.4133352,46.4 79.733332,46.5466652 80,46.84 Z M56.68,19.56 C54.6266564,20.6000052 52.8133412,22.1466564 51.24,24.2 C49.6666588,26.2533436 48.613336,28.746652 48.08,31.68 L77.52,31.68 L77.52,30.96 C77.253332,28.2399864 76.386674,25.9066764 74.92,23.96 C73.453326,22.0133236 71.6400108,20.5333384 69.48,19.52 C67.3199892,18.5066616 65.0666784,18 62.72,18 C60.7466568,18 58.7333436,18.5199948 56.68,19.56 Z M113.04,16.64 C113.04,17.1200024 112.906668,17.5199984 112.64,17.84 C112.373332,18.1600016 112.026669,18.32 111.6,18.32 C111.439999,18.32 111.053336,18.2000012 110.44,17.96 C109.826664,17.7199988 109.173337,17.6 108.48,17.6 C106.293322,17.6 104.106678,18.466658 101.92,20.2 C99.7333224,21.933342 97.9466736,24.1199868 96.56,26.76 C95.1733264,29.4000132 94.48,31.9466544 94.48,34.4 L94.48,54.4 C94.48,54.8266688 94.3200016,55.1999984 94,55.52 C93.6799984,55.8400016 93.3066688,56 92.88,56 C92.3999976,56 92.0133348,55.8400016 91.72,55.52 C91.4266652,55.1999984 91.28,54.8266688 91.28,54.4 L91.28,17.68 C91.28,17.2533312 91.4399984,16.8800016 91.76,16.56 C92.0800016,16.2399984 92.4533312,16.08 92.88,16.08 C93.3600024,16.08 93.7466652,16.2399984 94.04,16.56 C94.3333348,16.8800016 94.48,17.2533312 94.48,17.68 L94.48,26.16 C95.7066728,22.9066504 97.6133204,20.213344 100.2,18.08 C102.78668,15.946656 105.839982,14.8533336 109.36,14.8 C111.813346,14.8 113.04,15.4133272 113.04,16.64 Z M151.52,46.84 C151.786668,47.1333348 151.92,47.4666648 151.92,47.84 C151.92,48.2133352 151.813334,48.533332 151.6,48.8 C149.839991,51.1466784 147.653346,53.0666592 145.04,54.56 C142.426654,56.0533408 139.626682,56.8 136.64,56.8 C132.63998,56.8 129.093349,55.9466752 126,54.24 C122.906651,52.5333248 120.493342,50.1066824 118.76,46.96 C117.026658,43.8133176 116.16,40.1600208 116.16,36 C116.16,31.733312 116.999992,27.9866828 118.68,24.76 C120.360008,21.5333172 122.586653,19.0666752 125.36,17.36 C128.133347,15.6533248 131.093318,14.8 134.24,14.8 C137.386682,14.8 140.306653,15.4799932 143,16.84 C145.693347,18.2000068 147.893325,20.2399864 149.6,22.96 C151.306675,25.6800136 152.213333,29.03998 152.32,33.04 C152.32,33.4666688 152.160002,33.8533316 151.84,34.2 C151.519998,34.5466684 151.146669,34.72 150.72,34.72 L119.28,34.72 L119.28,35.76 C119.28,39.0666832 119.94666,42.0933196 121.28,44.84 C122.61334,47.5866804 124.586654,49.759992 127.2,51.36 C129.813346,52.960008 132.959982,53.76 136.64,53.76 C139.200013,53.76 141.613322,53.1333396 143.88,51.88 C146.146678,50.6266604 147.919994,49.0400096 149.2,47.12 C149.573335,46.6399976 150.026664,46.4 150.56,46.4 C150.933335,46.4 151.253332,46.5466652 151.52,46.84 Z M128.2,19.56 C126.146656,20.6000052 124.333341,22.1466564 122.76,24.2 C121.186659,26.2533436 120.133336,28.746652 119.6,31.68 L149.04,31.68 L149.04,30.96 C148.773332,28.2399864 147.906674,25.9066764 146.44,23.96 C144.973326,22.0133236 143.160011,20.5333384 141,19.52 C138.839989,18.5066616 136.586678,18 134.24,18 C132.266657,18 130.253344,18.5199948 128.2,19.56 Z M218.68,19.92 C221.053345,22.8000144 222.24,26.5333104 222.24,31.12 L222.24,54.4 C222.24,54.8266688 222.093335,55.1999984 221.8,55.52 C221.506665,55.8400016 221.120002,56 220.64,56 C220.159998,56 219.773335,55.8400016 219.48,55.52 C219.186665,55.1999984 219.04,54.8266688 219.04,54.4 L219.04,31.44 C219.04,27.6533144 218.120009,24.5733452 216.28,22.2 C214.439991,19.8266548 211.653352,18.64 207.92,18.64 C205.626655,18.64 203.373344,19.2266608 201.16,20.4 C198.946656,21.5733392 197.146674,23.1333236 195.76,25.08 C194.373326,27.0266764 193.68,29.1466552 193.68,31.44 L193.68,54.4 C193.68,54.8266688 193.533335,55.1999984 193.24,55.52 C192.946665,55.8400016 192.560002,56 192.08,56 C191.599998,56 191.213335,55.8400016 190.92,55.52 C190.626665,55.1999984 190.48,54.8266688 190.48,54.4 L190.48,31.04 C190.48,27.3599816 189.600009,24.3733448 187.84,22.08 C186.079991,19.7866552 183.413351,18.64 179.84,18.64 C177.599989,18.64 175.413344,19.1999944 173.28,20.32 C171.146656,21.4400056 169.400007,22.9599904 168.04,24.88 C166.679993,26.8000096 166,28.8533224 166,31.04 L166,54.4 C166,54.8266688 165.840002,55.1999984 165.52,55.52 C165.199998,55.8400016 164.826669,56 164.4,56 C163.919998,56 163.533335,55.8400016 163.24,55.52 C162.946665,55.1999984 162.8,54.8266688 162.8,54.4 L162.8,17.68 C162.8,17.2533312 162.959998,16.8800016 163.28,16.56 C163.600002,16.2399984 163.973331,16.08 164.4,16.08 C164.880002,16.08 165.266665,16.2399984 165.56,16.56 C165.853335,16.8800016 166,17.2533312 166,17.68 L166,23.28 C167.546674,21.0399888 169.559988,19.2000072 172.04,17.76 C174.520012,16.3199928 177.119986,15.6 179.84,15.6 C182.773348,15.6 185.386655,16.3466592 187.68,17.84 C189.973345,19.3333408 191.653328,21.5199856 192.72,24.4 C193.840006,21.9466544 195.959984,19.8666752 199.08,18.16 C202.200016,16.4533248 205.253318,15.6 208.24,15.6 C212.82669,15.6 216.306655,17.0399856 218.68,19.92 Z M266.36,15.28 C266.653335,15.6000016 266.8,15.9733312 266.8,16.4 L266.8,52.08 C266.8,56.08002 265.986675,59.5866516 264.36,62.6 C262.733325,65.6133484 260.493348,67.9333252 257.64,69.56 C254.786652,71.1866748 251.546685,72 247.92,72 C245.573322,72 243.426676,71.7200028 241.48,71.16 C239.533324,70.5999972 237.89334,69.8666712 236.56,68.96 C235.599995,68.3199968 235.306665,67.600004 235.68,66.8 C236.053335,66.1599968 236.506664,65.84 237.04,65.84 C237.306668,65.84 237.546666,65.9199992 237.76,66.08 C239.040006,66.880004 240.573324,67.5866636 242.36,68.2 C244.146676,68.8133364 246.053323,69.12 248.08,69.12 C251.120015,69.12 253.813322,68.4000072 256.16,66.96 C258.506678,65.5199928 260.333327,63.5066796 261.64,60.92 C262.946673,58.3333204 263.6,55.3866832 263.6,52.08 L263.6,48.48 C262.373327,50.880012 260.413347,52.8666588 257.72,54.44 C255.026653,56.0133412 252.240014,56.8 249.36,56.8 C244.559976,56.8 240.986678,55.4266804 238.64,52.68 C236.293322,49.9333196 235.12,46.160024 235.12,41.36 L235.12,16.4 C235.12,15.9733312 235.266665,15.6000016 235.56,15.28 C235.853335,14.9599984 236.239998,14.8 236.72,14.8 C237.200002,14.8 237.586665,14.9599984 237.88,15.28 C238.173335,15.6000016 238.32,15.9733312 238.32,16.4 L238.32,41.36 C238.32,49.626708 241.999963,53.76 249.36,53.76 C251.653345,53.76 253.906656,53.160006 256.12,51.96 C258.333344,50.759994 260.133326,49.2000096 261.52,47.28 C262.906674,45.3599904 263.6,43.3866768 263.6,41.36 L263.6,16.4 C263.6,15.9733312 263.746665,15.6000016 264.04,15.28 C264.333335,14.9599984 264.719998,14.8 265.2,14.8 C265.680002,14.8 266.066665,14.9599984 266.36,15.28 Z M90.4,105.92 C90.4,106.346669 90.2933344,106.693332 90.08,106.96 C89.7599984,107.386669 89.3600024,107.6 88.88,107.6 C88.6666656,107.6 88.3466688,107.493334 87.92,107.28 C82.9599752,103.919983 77.7066944,102.24 72.16,102.24 C67.6799776,102.24 63.5600188,103.346656 59.8,105.56 C56.0399812,107.773344 53.0666776,110.83998 50.88,114.76 C48.6933224,118.68002 47.6,123.093309 47.6,128 C47.6,132.906691 48.6933224,137.31998 50.88,141.24 C53.0666776,145.16002 56.0399812,148.226656 59.8,150.44 C63.5600188,152.653344 67.6799776,153.76 72.16,153.76 C77.760028,153.76 82.9866424,152.106683 87.84,148.8 C88.106668,148.586666 88.4266648,148.48 88.8,148.48 C89.333336,148.48 89.7599984,148.693331 90.08,149.12 C90.2933344,149.386668 90.4,149.706665 90.4,150.08 C90.4,150.613336 90.1866688,151.039998 89.76,151.36 C87.6799896,152.853341 85.0000164,154.133328 81.72,155.2 C78.4399836,156.266672 75.2533488,156.8 72.16,156.8 C67.093308,156.8 62.426688,155.546679 58.16,153.04 C53.893312,150.533321 50.5066792,147.080022 48,142.68 C45.4933208,138.279978 44.24,133.386694 44.24,128 C44.24,122.613306 45.4933208,117.720022 48,113.32 C50.5066792,108.919978 53.893312,105.466679 58.16,102.96 C62.426688,100.453321 67.093308,99.2 72.16,99.2 C75.360016,99.2 78.4666516,99.6799952 81.48,100.64 C84.4933484,101.600005 87.2266544,102.933325 89.68,104.64 C90.1600024,105.013335 90.4,105.439998 90.4,105.92 Z M127.84,119.96 C130.293346,122.866681 131.52,126.559978 131.52,131.04 L131.52,154.4 C131.52,154.826669 131.360002,155.199998 131.04,155.52 C130.719998,155.840002 130.346669,156 129.92,156 C129.439998,156 129.053335,155.840002 128.76,155.52 C128.466665,155.199998 128.32,154.826669 128.32,154.4 L128.32,131.04 C128.32,127.359982 127.413342,124.373345 125.6,122.08 C123.786658,119.786655 121.013352,118.64 117.28,118.64 C114.986655,118.64 112.733344,119.199994 110.52,120.32 C108.306656,121.440006 106.506674,122.95999 105.12,124.88 C103.733326,126.80001 103.04,128.853322 103.04,131.04 L103.04,154.4 C103.04,154.826669 102.880002,155.199998 102.56,155.52 C102.239998,155.840002 101.866669,156 101.44,156 C100.959998,156 100.573335,155.840002 100.28,155.52 C99.9866652,155.199998 99.84,154.826669 99.84,154.4 L99.84,98.4 C99.84,97.9733312 99.9999984,97.6000016 100.32,97.28 C100.640002,96.9599984 101.013331,96.8 101.44,96.8 C101.920002,96.8 102.306665,96.9599984 102.6,97.28 C102.893335,97.6000016 103.04,97.9733312 103.04,98.4 L103.04,123.68 C104.533341,121.333322 106.599987,119.400008 109.24,117.88 C111.880013,116.359992 114.559986,115.6 117.28,115.6 C121.86669,115.6 125.386654,117.053319 127.84,119.96 Z M177.36,146.84 C177.626668,147.133335 177.76,147.466665 177.76,147.84 C177.76,148.213335 177.653334,148.533332 177.44,148.8 C175.679991,151.146678 173.493346,153.066659 170.88,154.56 C168.266654,156.053341 165.466682,156.8 162.48,156.8 C158.47998,156.8 154.933349,155.946675 151.84,154.24 C148.746651,152.533325 146.333342,150.106682 144.6,146.96 C142.866658,143.813318 142,140.160021 142,136 C142,131.733312 142.839992,127.986683 144.52,124.76 C146.200008,121.533317 148.426653,119.066675 151.2,117.36 C153.973347,115.653325 156.933318,114.8 160.08,114.8 C163.226682,114.8 166.146653,115.479993 168.84,116.84 C171.533347,118.200007 173.733325,120.239986 175.44,122.96 C177.146675,125.680014 178.053333,129.03998 178.16,133.04 C178.16,133.466669 178.000002,133.853332 177.68,134.2 C177.359998,134.546668 176.986669,134.72 176.56,134.72 L145.12,134.72 L145.12,135.76 C145.12,139.066683 145.78666,142.09332 147.12,144.84 C148.45334,147.58668 150.426654,149.759992 153.04,151.36 C155.653346,152.960008 158.799982,153.76 162.48,153.76 C165.040013,153.76 167.453322,153.13334 169.72,151.88 C171.986678,150.62666 173.759994,149.04001 175.04,147.12 C175.413335,146.639998 175.866664,146.4 176.4,146.4 C176.773335,146.4 177.093332,146.546665 177.36,146.84 Z M154.04,119.56 C151.986656,120.600005 150.173341,122.146656 148.6,124.2 C147.026659,126.253344 145.973336,128.746652 145.44,131.68 L174.88,131.68 L174.88,130.96 C174.613332,128.239986 173.746674,125.906676 172.28,123.96 C170.813326,122.013324 169.000011,120.533338 166.84,119.52 C164.679989,118.506662 162.426678,118 160.08,118 C158.106657,118 156.093344,118.519995 154.04,119.56 Z M217.52,119 C219.920012,121.800014 221.12,125.439978 221.12,129.92 L221.12,154.4 C221.12,154.826669 220.960002,155.199998 220.64,155.52 C220.319998,155.840002 219.946669,156 219.52,156 C219.039998,156 218.653335,155.840002 218.36,155.52 C218.066665,155.199998 217.92,154.826669 217.92,154.4 L217.92,130.24 C217.92,126.613315 216.973343,123.640012 215.08,121.32 C213.186657,118.999988 210.320019,117.84 206.48,117.84 C204.133322,117.84 201.826678,118.399994 199.56,119.52 C197.293322,120.640006 195.440007,122.15999 194,124.08 C192.559993,126.00001 191.84,128.053322 191.84,130.24 L191.84,154.4 C191.84,154.826669 191.680002,155.199998 191.36,155.52 C191.039998,155.840002 190.666669,156 190.24,156 C189.759998,156 189.373335,155.840002 189.08,155.52 C188.786665,155.199998 188.64,154.826669 188.64,154.4 L188.64,117.68 C188.64,117.253331 188.799998,116.880002 189.12,116.56 C189.440002,116.239998 189.813331,116.08 190.24,116.08 C190.720002,116.08 191.106665,116.239998 191.4,116.56 C191.693335,116.880002 191.84,117.253331 191.84,117.68 L191.84,123.04 C193.386674,120.639988 195.559986,118.666674 198.36,117.12 C201.160014,115.573326 203.973319,114.8 206.8,114.8 C211.54669,114.8 215.119988,116.199986 217.52,119 Z" id="Jeremy-Chen" fill="#828284"></path>
    </g>
</svg>