<?xml version="1.0" encoding="iso-8859-1"?>
<!-- Generator: Adobe Illustrator 16.0.0, SVG Export Plug-In . SVG Version: 6.00 Build 0)  -->
<!DOCTYPE svg PUBLIC "-//W3C//DTD SVG 1.1//EN" "http://www.w3.org/Graphics/SVG/1.1/DTD/svg11.dtd">
<svg version="1.1" id="Capa_1" xmlns="http://www.w3.org/2000/svg" xmlns:xlink="http://www.w3.org/1999/xlink" x="0px" y="0px"
	 width="476.264px" height="476.265px" viewBox="0 0 476.264 476.265" style="enable-background:new 0 0 476.264 476.265;"
	 xml:space="preserve">
<g>
	<g>
		<path d="M416.995,88.482l-7.742-31.418c-1.379-5.596-7.254-8.965-13.117-7.52c-2.123,0.525-3.935,1.617-5.338,3.048V0H80.613
			v49.536c-5.833-1.391-11.647,1.961-13.024,7.536L59.81,88.654l-0.854-0.261c0,0-25.603,97.198-13.655,137.587
			c11.948,40.395,83.741,111.495,83.741,111.495l27.751,127.98c0,0,44.371,10.809,81.345,10.809
			c36.977,0,81.347-10.809,81.347-10.809l27.747-127.98c0,0,71.793-71.101,83.731-111.495
			c11.942-40.389-13.646-137.587-13.646-137.587L416.995,88.482z M392.02,78.558c-0.4,0-0.813-0.016-1.223,0.03v-4.991
			L392.02,78.558z M327.821,22.654h18.635v22.251l-4.821,40.916h-8.86l-4.937-40.916V22.654H327.821z M346.035,92.9v17.208h-17.801
			V92.9H346.035z M238.94,29.917c6.628-6.831,16.21-10.239,28.761-10.239c12.539,0,22.117,3.417,28.749,10.239
			c8.845,8.053,13.276,20.122,13.276,36.197c0,15.759-4.432,27.822-13.276,36.201c-6.624,6.827-16.21,10.235-28.749,10.235
			c-12.551,0-22.125-3.417-28.761-10.235c-8.887-8.379-13.337-20.442-13.337-36.201C225.604,50.039,230.054,37.97,238.94,29.917z
			 M141.55,32.949c7.816-8.566,18.158-12.852,31.014-12.852c11.155,0,20.113,2.825,26.884,8.486
			c6.764,5.658,10.644,12.707,11.642,21.163h-18.043c-1.389-5.987-4.781-10.181-10.181-12.562
			c-3.013-1.311-6.368-1.961-10.062-1.961c-7.069,0-12.868,2.663-17.415,7.999c-4.546,5.318-6.811,13.341-6.811,24.031
			c0,10.78,2.457,18.396,7.378,22.869c4.921,4.474,10.52,6.72,16.783,6.72c6.155,0,11.197-1.767,15.12-5.298
			c3.925-3.527,6.352-8.157,7.261-13.872h-20.302V63.013h36.55V110.1h-12.143l-1.837-10.95c-3.534,4.148-6.704,7.075-9.521,8.771
			c-4.845,2.965-10.794,4.442-17.859,4.442c-11.629,0-21.159-4.03-28.575-12.075c-7.74-8.093-11.612-19.164-11.612-33.2
			C129.82,52.898,133.729,41.521,141.55,32.949z M366.689,220.282c-19.656,22.323-128.558,67.244-128.558,67.244
			s-108.894-44.921-128.558-67.244c-17.318-19.665-21.745-51.576-21.995-77.876h301.097
			C388.446,168.714,384.005,200.618,366.689,220.282z"/>
		<path d="M238.139,158.514c29.959,0,54.241,24.283,54.241,54.238c0,29.958-24.281,54.236-54.241,54.236
			c-29.954,0-54.236-24.279-54.236-54.236C183.902,182.796,208.185,158.514,238.139,158.514z"/>
		<path d="M267.702,97.005c7.249,0,13.016-2.675,17.292-8.037c4.264-5.356,6.396-12.976,6.396-22.862
			c0-9.844-2.132-17.448-6.396-22.826c-4.276-5.378-10.043-8.073-17.292-8.073c-7.27,0-13.064,2.679-17.389,8.039
			c-4.323,5.354-6.489,12.978-6.489,22.86c0,9.886,2.166,17.498,6.489,22.862C254.637,94.331,260.432,97.005,267.702,97.005z"/>
	</g>
</g>
<g>
</g>
<g>
</g>
<g>
</g>
<g>
</g>
<g>
</g>
<g>
</g>
<g>
</g>
<g>
</g>
<g>
</g>
<g>
</g>
<g>
</g>
<g>
</g>
<g>
</g>
<g>
</g>
<g>
</g>
</svg>
